<mxfile host="65bd71144e">
    <diagram id="XyErrEsmRnF6G6u2EZ43" name="Page-1">
        <mxGraphModel dx="1116" dy="725" grid="1" gridSize="10" guides="1" tooltips="1" connect="1" arrows="1" fold="1" page="1" pageScale="1" pageWidth="850" pageHeight="1100" background="#000000" math="0" shadow="0">
            <root>
                <mxCell id="0"/>
                <mxCell id="1" parent="0"/>
                <mxCell id="3" style="edgeStyle=none;html=1;fontColor=#000000;" edge="1" parent="1" source="2">
                    <mxGeometry relative="1" as="geometry">
                        <mxPoint x="280" y="130" as="targetPoint"/>
                    </mxGeometry>
                </mxCell>
                <mxCell id="2" value="&lt;font color=&quot;#000000&quot;&gt;Website&lt;/font&gt;" style="ellipse;whiteSpace=wrap;html=1;aspect=fixed;fillColor=#FFFFFF;strokeColor=#FF0000;" vertex="1" parent="1">
                    <mxGeometry x="240" y="20" width="80" height="80" as="geometry"/>
                </mxCell>
                <mxCell id="4" value="&lt;font style=&quot;font-size: 20px;&quot;&gt;BANNER&lt;/font&gt;" style="rounded=0;whiteSpace=wrap;html=1;fontColor=#000000;fillColor=#FFFFFF;strokeColor=#FF0000;" vertex="1" parent="1">
                    <mxGeometry x="60" y="140" width="430" height="110" as="geometry"/>
                </mxCell>
                <mxCell id="11" value="" style="rounded=0;whiteSpace=wrap;html=1;strokeColor=#FF0000;fontSize=20;fontColor=#000000;fillColor=#FFFFFF;" vertex="1" parent="1">
                    <mxGeometry x="60" y="270" width="430" height="180" as="geometry"/>
                </mxCell>
                <mxCell id="12" value="" style="rounded=0;whiteSpace=wrap;html=1;strokeColor=#FF0000;fontSize=20;fontColor=#000000;fillColor=#FFFFFF;" vertex="1" parent="1">
                    <mxGeometry x="80" y="320" width="60" height="30" as="geometry"/>
                </mxCell>
                <mxCell id="13" value="" style="rounded=0;whiteSpace=wrap;html=1;strokeColor=#FF0000;fontSize=20;fontColor=#000000;fillColor=#FFFFFF;" vertex="1" parent="1">
                    <mxGeometry x="160" y="320" width="60" height="30" as="geometry"/>
                </mxCell>
                <mxCell id="14" value="" style="rounded=0;whiteSpace=wrap;html=1;strokeColor=#FF0000;fontSize=20;fontColor=#000000;fillColor=#FFFFFF;" vertex="1" parent="1">
                    <mxGeometry x="240" y="320" width="60" height="30" as="geometry"/>
                </mxCell>
                <mxCell id="15" value="" style="rounded=0;whiteSpace=wrap;html=1;strokeColor=#FF0000;fontSize=20;fontColor=#000000;fillColor=#FFFFFF;" vertex="1" parent="1">
                    <mxGeometry x="400" y="320" width="60" height="30" as="geometry"/>
                </mxCell>
                <mxCell id="17" value="" style="rounded=0;whiteSpace=wrap;html=1;strokeColor=#FF0000;fontSize=20;fontColor=#000000;fillColor=#FFFFFF;" vertex="1" parent="1">
                    <mxGeometry x="320" y="320" width="70" height="30" as="geometry"/>
                </mxCell>
                <mxCell id="18" value="" style="rounded=0;whiteSpace=wrap;html=1;strokeColor=#FF0000;fontSize=20;fontColor=#000000;fillColor=#FFFFFF;" vertex="1" parent="1">
                    <mxGeometry x="80" y="360" width="60" height="30" as="geometry"/>
                </mxCell>
                <mxCell id="19" value="" style="rounded=0;whiteSpace=wrap;html=1;strokeColor=#FF0000;fontSize=20;fontColor=#000000;fillColor=#FFFFFF;" vertex="1" parent="1">
                    <mxGeometry x="160" y="360" width="60" height="30" as="geometry"/>
                </mxCell>
                <mxCell id="20" value="" style="rounded=0;whiteSpace=wrap;html=1;strokeColor=#FF0000;fontSize=20;fontColor=#000000;fillColor=#FFFFFF;" vertex="1" parent="1">
                    <mxGeometry x="240" y="360" width="60" height="30" as="geometry"/>
                </mxCell>
                <mxCell id="21" value="" style="rounded=0;whiteSpace=wrap;html=1;strokeColor=#FF0000;fontSize=20;fontColor=#000000;fillColor=#FFFFFF;" vertex="1" parent="1">
                    <mxGeometry x="320" y="360" width="70" height="30" as="geometry"/>
                </mxCell>
                <mxCell id="22" value="" style="rounded=0;whiteSpace=wrap;html=1;strokeColor=#FF0000;fontSize=20;fontColor=#000000;fillColor=#FFFFFF;" vertex="1" parent="1">
                    <mxGeometry x="405" y="360" width="60" height="30" as="geometry"/>
                </mxCell>
                <mxCell id="23" value="" style="rounded=0;whiteSpace=wrap;html=1;strokeColor=#FF0000;fontSize=20;fontColor=#000000;fillColor=#FFFFFF;" vertex="1" parent="1">
                    <mxGeometry x="80" y="400" width="60" height="30" as="geometry"/>
                </mxCell>
                <mxCell id="24" value="" style="rounded=0;whiteSpace=wrap;html=1;strokeColor=#FF0000;fontSize=20;fontColor=#000000;fillColor=#FFFFFF;" vertex="1" parent="1">
                    <mxGeometry x="160" y="400" width="60" height="30" as="geometry"/>
                </mxCell>
                <mxCell id="25" value="" style="rounded=0;whiteSpace=wrap;html=1;strokeColor=#FF0000;fontSize=20;fontColor=#000000;fillColor=#FFFFFF;" vertex="1" parent="1">
                    <mxGeometry x="240" y="400" width="60" height="30" as="geometry"/>
                </mxCell>
                <mxCell id="26" value="" style="rounded=0;whiteSpace=wrap;html=1;strokeColor=#FF0000;fontSize=20;fontColor=#000000;fillColor=#FFFFFF;" vertex="1" parent="1">
                    <mxGeometry x="320" y="400" width="70" height="30" as="geometry"/>
                </mxCell>
                <mxCell id="27" value="" style="rounded=0;whiteSpace=wrap;html=1;strokeColor=#FF0000;fontSize=20;fontColor=#000000;fillColor=#FFFFFF;" vertex="1" parent="1">
                    <mxGeometry x="405" y="400" width="60" height="30" as="geometry"/>
                </mxCell>
                <mxCell id="28" value="" style="endArrow=none;html=1;exitX=0.5;exitY=1;exitDx=0;exitDy=0;entryX=0.5;entryY=0;entryDx=0;entryDy=0;" edge="1" parent="1" source="4" target="11">
                    <mxGeometry width="50" height="50" relative="1" as="geometry">
                        <mxPoint x="400" y="390" as="sourcePoint"/>
                        <mxPoint x="450" y="340" as="targetPoint"/>
                    </mxGeometry>
                </mxCell>
                <mxCell id="29" value="&lt;font color=&quot;#000000&quot;&gt;&lt;b&gt;SERVICES&lt;/b&gt;&lt;/font&gt;" style="text;html=1;strokeColor=none;fillColor=none;align=center;verticalAlign=middle;whiteSpace=wrap;rounded=0;" vertex="1" parent="1">
                    <mxGeometry x="245" y="280" width="60" height="30" as="geometry"/>
                </mxCell>
                <mxCell id="31" value="1" style="text;html=1;strokeColor=none;fillColor=none;align=center;verticalAlign=middle;whiteSpace=wrap;rounded=0;fontColor=#000000;" vertex="1" parent="1">
                    <mxGeometry x="80" y="320" width="60" height="30" as="geometry"/>
                </mxCell>
                <mxCell id="32" value="2" style="text;html=1;strokeColor=none;fillColor=none;align=center;verticalAlign=middle;whiteSpace=wrap;rounded=0;fontColor=#000000;" vertex="1" parent="1">
                    <mxGeometry x="160" y="320" width="60" height="30" as="geometry"/>
                </mxCell>
                <mxCell id="33" value="3" style="text;html=1;strokeColor=none;fillColor=none;align=center;verticalAlign=middle;whiteSpace=wrap;rounded=0;fontColor=#000000;" vertex="1" parent="1">
                    <mxGeometry x="240" y="320" width="60" height="30" as="geometry"/>
                </mxCell>
                <mxCell id="34" value="4" style="text;html=1;strokeColor=none;fillColor=none;align=center;verticalAlign=middle;whiteSpace=wrap;rounded=0;fontColor=#000000;" vertex="1" parent="1">
                    <mxGeometry x="320" y="320" width="60" height="30" as="geometry"/>
                </mxCell>
                <mxCell id="35" value="5" style="text;html=1;strokeColor=none;fillColor=none;align=center;verticalAlign=middle;whiteSpace=wrap;rounded=0;fontColor=#000000;" vertex="1" parent="1">
                    <mxGeometry x="395" y="320" width="60" height="30" as="geometry"/>
                </mxCell>
                <mxCell id="36" value="6" style="text;html=1;strokeColor=none;fillColor=none;align=center;verticalAlign=middle;whiteSpace=wrap;rounded=0;fontColor=#000000;" vertex="1" parent="1">
                    <mxGeometry x="80" y="360" width="60" height="30" as="geometry"/>
                </mxCell>
                <mxCell id="37" value="7" style="text;html=1;strokeColor=none;fillColor=none;align=center;verticalAlign=middle;whiteSpace=wrap;rounded=0;fontColor=#000000;" vertex="1" parent="1">
                    <mxGeometry x="160" y="360" width="60" height="30" as="geometry"/>
                </mxCell>
                <mxCell id="38" value="8" style="text;html=1;strokeColor=none;fillColor=none;align=center;verticalAlign=middle;whiteSpace=wrap;rounded=0;fontColor=#000000;" vertex="1" parent="1">
                    <mxGeometry x="240" y="360" width="60" height="30" as="geometry"/>
                </mxCell>
                <mxCell id="39" value="9" style="text;html=1;strokeColor=none;fillColor=none;align=center;verticalAlign=middle;whiteSpace=wrap;rounded=0;fontColor=#000000;" vertex="1" parent="1">
                    <mxGeometry x="325" y="360" width="60" height="30" as="geometry"/>
                </mxCell>
                <mxCell id="40" value="10" style="text;html=1;strokeColor=none;fillColor=none;align=center;verticalAlign=middle;whiteSpace=wrap;rounded=0;fontColor=#000000;" vertex="1" parent="1">
                    <mxGeometry x="405" y="360" width="60" height="30" as="geometry"/>
                </mxCell>
                <mxCell id="41" value="11" style="text;html=1;strokeColor=none;fillColor=none;align=center;verticalAlign=middle;whiteSpace=wrap;rounded=0;fontColor=#000000;" vertex="1" parent="1">
                    <mxGeometry x="80" y="400" width="60" height="30" as="geometry"/>
                </mxCell>
                <mxCell id="42" value="12" style="text;html=1;strokeColor=none;fillColor=none;align=center;verticalAlign=middle;whiteSpace=wrap;rounded=0;fontColor=#000000;" vertex="1" parent="1">
                    <mxGeometry x="160" y="400" width="60" height="30" as="geometry"/>
                </mxCell>
                <mxCell id="43" value="13" style="text;html=1;strokeColor=none;fillColor=none;align=center;verticalAlign=middle;whiteSpace=wrap;rounded=0;fontColor=#000000;" vertex="1" parent="1">
                    <mxGeometry x="245" y="400" width="60" height="30" as="geometry"/>
                </mxCell>
                <mxCell id="44" value="14" style="text;html=1;strokeColor=none;fillColor=none;align=center;verticalAlign=middle;whiteSpace=wrap;rounded=0;fontColor=#000000;" vertex="1" parent="1">
                    <mxGeometry x="320" y="400" width="60" height="30" as="geometry"/>
                </mxCell>
                <mxCell id="45" value="15" style="text;html=1;strokeColor=none;fillColor=none;align=center;verticalAlign=middle;whiteSpace=wrap;rounded=0;fontColor=#000000;" vertex="1" parent="1">
                    <mxGeometry x="405" y="400" width="60" height="30" as="geometry"/>
                </mxCell>
                <mxCell id="47" value="" style="rounded=0;whiteSpace=wrap;html=1;fontColor=#000000;fillColor=#FFFFFF;strokeColor=#FF0000;" vertex="1" parent="1">
                    <mxGeometry x="60" y="470" width="430" height="200" as="geometry"/>
                </mxCell>
                <mxCell id="48" value="" style="endArrow=none;html=1;fontColor=#000000;entryX=0.478;entryY=1.007;entryDx=0;entryDy=0;entryPerimeter=0;exitX=0.478;exitY=0.013;exitDx=0;exitDy=0;exitPerimeter=0;" edge="1" parent="1" source="47" target="11">
                    <mxGeometry width="50" height="50" relative="1" as="geometry">
                        <mxPoint x="400" y="510" as="sourcePoint"/>
                        <mxPoint x="450" y="460" as="targetPoint"/>
                    </mxGeometry>
                </mxCell>
                <mxCell id="49" value="Blogs" style="rounded=0;whiteSpace=wrap;html=1;fontColor=#000000;fillColor=#FFFFFF;strokeColor=#FF0000;" vertex="1" parent="1">
                    <mxGeometry x="81" y="480" width="390" height="50" as="geometry"/>
                </mxCell>
                <mxCell id="50" value="Developments / Succes Stories" style="rounded=0;whiteSpace=wrap;html=1;fontColor=#000000;fillColor=#FFFFFF;strokeColor=#CC0000;" vertex="1" parent="1">
                    <mxGeometry x="80" y="540" width="390" height="50" as="geometry"/>
                </mxCell>
                <mxCell id="51" value="" style="rounded=0;whiteSpace=wrap;html=1;fontColor=#000000;fillColor=#FFFFFF;strokeColor=#FF0000;" vertex="1" parent="1">
                    <mxGeometry x="59" y="690" width="430" height="150" as="geometry"/>
                </mxCell>
                <mxCell id="54" value="" style="endArrow=none;html=1;fontColor=#000000;exitX=0.478;exitY=1.008;exitDx=0;exitDy=0;exitPerimeter=0;" edge="1" parent="1" source="47">
                    <mxGeometry width="50" height="50" relative="1" as="geometry">
                        <mxPoint x="400" y="390" as="sourcePoint"/>
                        <mxPoint x="266" y="700" as="targetPoint"/>
                    </mxGeometry>
                </mxCell>
                <mxCell id="55" value="Enquiry Form" style="rounded=0;whiteSpace=wrap;html=1;fontColor=#000000;fillColor=#FFFFFF;strokeColor=#FF0000;" vertex="1" parent="1">
                    <mxGeometry x="105" y="707.5" width="110" height="115" as="geometry"/>
                </mxCell>
                <mxCell id="58" value="" style="edgeStyle=none;html=1;fontColor=#000000;" edge="1" parent="1" source="57" target="55">
                    <mxGeometry relative="1" as="geometry"/>
                </mxCell>
                <mxCell id="57" value="Contact Form" style="text;html=1;strokeColor=none;fillColor=none;align=center;verticalAlign=middle;whiteSpace=wrap;rounded=0;fontColor=#000000;" vertex="1" parent="1">
                    <mxGeometry x="320" y="760" width="110" height="30" as="geometry"/>
                </mxCell>
                <mxCell id="63" value="" style="endArrow=classic;startArrow=classic;html=1;strokeColor=#FF3333;fontColor=#000000;exitX=1;exitY=0.5;exitDx=0;exitDy=0;" edge="1" parent="1" source="40">
                    <mxGeometry width="50" height="50" relative="1" as="geometry">
                        <mxPoint x="670" y="740" as="sourcePoint"/>
                        <mxPoint x="250" y="960" as="targetPoint"/>
                        <Array as="points">
                            <mxPoint x="530" y="375"/>
                            <mxPoint x="530" y="880"/>
                            <mxPoint x="250" y="880"/>
                        </Array>
                    </mxGeometry>
                </mxCell>
                <mxCell id="64" value="" style="rounded=0;whiteSpace=wrap;html=1;strokeColor=#CC0000;fontColor=#000000;fillColor=#FFFFFF;" vertex="1" parent="1">
                    <mxGeometry x="60" y="970" width="440" height="440" as="geometry"/>
                </mxCell>
                <mxCell id="65" value="Text" style="text;html=1;strokeColor=none;fillColor=none;align=center;verticalAlign=middle;whiteSpace=wrap;rounded=0;fontColor=#000000;" vertex="1" parent="1">
                    <mxGeometry x="340" y="940" width="60" height="30" as="geometry"/>
                </mxCell>
                <mxCell id="66" value="SERVICE !0 - (Student Welfare)" style="text;html=1;strokeColor=none;fillColor=none;align=center;verticalAlign=middle;whiteSpace=wrap;rounded=0;fontColor=#000000;" vertex="1" parent="1">
                    <mxGeometry x="150" y="990" width="250" height="30" as="geometry"/>
                </mxCell>
                <mxCell id="67" value="" style="rounded=0;whiteSpace=wrap;html=1;strokeColor=#CC0000;fontColor=#000000;fillColor=#FFFFFF;" vertex="1" parent="1">
                    <mxGeometry x="70" y="1030" width="420" height="70" as="geometry"/>
                </mxCell>
                <mxCell id="68" value="Text" style="text;html=1;strokeColor=none;fillColor=none;align=center;verticalAlign=middle;whiteSpace=wrap;rounded=0;fontColor=#000000;" vertex="1" parent="1">
                    <mxGeometry x="340" y="930" width="60" height="30" as="geometry"/>
                </mxCell>
                <mxCell id="69" value="&lt;font color=&quot;#ff0000&quot;&gt;Live Acoount Balance&lt;/font&gt;" style="text;html=1;strokeColor=none;fillColor=none;align=center;verticalAlign=middle;whiteSpace=wrap;rounded=0;fontColor=#000000;" vertex="1" parent="1">
                    <mxGeometry x="187.5" y="1050" width="165" height="30" as="geometry"/>
                </mxCell>
                <mxCell id="70" value="" style="rounded=0;whiteSpace=wrap;html=1;strokeColor=#CC0000;fontColor=#FF0000;fillColor=#FFFFFF;" vertex="1" parent="1">
                    <mxGeometry x="70" y="1120" width="420" height="160" as="geometry"/>
                </mxCell>
                <mxCell id="72" value="Donation Portal" style="text;html=1;strokeColor=none;fillColor=none;align=center;verticalAlign=middle;whiteSpace=wrap;rounded=0;fontColor=#FF0000;" vertex="1" parent="1">
                    <mxGeometry x="210" y="1170" width="140" height="30" as="geometry"/>
                </mxCell>
                <mxCell id="73" value="&lt;font color=&quot;#000000&quot;&gt;Stories&lt;/font&gt;" style="rounded=0;whiteSpace=wrap;html=1;strokeColor=#CC0000;fontColor=#FF0000;fillColor=#FFFFFF;" vertex="1" parent="1">
                    <mxGeometry x="70" y="1300" width="420" height="90" as="geometry"/>
                </mxCell>
                <mxCell id="74" value="" style="endArrow=classic;html=1;strokeColor=#FF3333;fontColor=#000000;exitX=1;exitY=0.5;exitDx=0;exitDy=0;" edge="1" parent="1" source="70">
                    <mxGeometry width="50" height="50" relative="1" as="geometry">
                        <mxPoint x="350" y="1150" as="sourcePoint"/>
                        <mxPoint x="290" y="1480" as="targetPoint"/>
                        <Array as="points">
                            <mxPoint x="530" y="1200"/>
                            <mxPoint x="530" y="1430"/>
                            <mxPoint x="290" y="1430"/>
                        </Array>
                    </mxGeometry>
                </mxCell>
                <mxCell id="75" value="" style="rounded=0;whiteSpace=wrap;html=1;strokeColor=#CC0000;fontColor=#000000;fillColor=#FFFFFF;" vertex="1" parent="1">
                    <mxGeometry x="60" y="1490" width="440" height="340" as="geometry"/>
                </mxCell>
                <mxCell id="76" value="Donate Now" style="rounded=0;whiteSpace=wrap;html=1;strokeColor=#CC0000;fontColor=#000000;fillColor=#FFFFFF;" vertex="1" parent="1">
                    <mxGeometry x="70" y="220" width="80" height="20" as="geometry"/>
                </mxCell>
                <mxCell id="77" value="Give Once" style="rounded=0;whiteSpace=wrap;html=1;strokeColor=#CC0000;fontSize=8;fontColor=#000000;fillColor=#FFFFFF;" vertex="1" parent="1">
                    <mxGeometry x="138" y="1510" width="132" height="20" as="geometry"/>
                </mxCell>
                <mxCell id="78" value="Monthly" style="rounded=0;whiteSpace=wrap;html=1;strokeColor=#CC0000;fontSize=8;fontColor=#000000;fillColor=#FFFFFF;" vertex="1" parent="1">
                    <mxGeometry x="270" y="1510" width="143" height="20" as="geometry"/>
                </mxCell>
                <mxCell id="79" value="" style="rounded=0;whiteSpace=wrap;html=1;strokeColor=#CC0000;fontSize=8;fontColor=#000000;fillColor=#FFFFFF;" vertex="1" parent="1">
                    <mxGeometry x="138" y="1550" width="272" height="200" as="geometry"/>
                </mxCell>
                <mxCell id="80" value="Login (if not login)" style="rounded=0;whiteSpace=wrap;html=1;strokeColor=#CC0000;fontSize=8;fontColor=#000000;fillColor=#FFFFFF;" vertex="1" parent="1">
                    <mxGeometry x="214" y="1565" width="120" height="25" as="geometry"/>
                </mxCell>
                <mxCell id="81" value="Form" style="rounded=0;whiteSpace=wrap;html=1;strokeColor=#CC0000;fontSize=8;fontColor=#000000;fillColor=#FFFFFF;" vertex="1" parent="1">
                    <mxGeometry x="215" y="1597.5" width="120" height="132.5" as="geometry"/>
                </mxCell>
                <mxCell id="83" value="Payment Methods" style="rounded=0;whiteSpace=wrap;html=1;strokeColor=#CC0000;fontSize=8;fontColor=#000000;fillColor=#FFFFFF;" vertex="1" parent="1">
                    <mxGeometry x="138" y="1770" width="272" height="40" as="geometry"/>
                </mxCell>
                <mxCell id="84" value="" style="endArrow=none;html=1;strokeColor=#FF3333;fontSize=8;fontColor=#000000;entryX=1;entryY=1;entryDx=0;entryDy=0;exitX=0.485;exitY=0.008;exitDx=0;exitDy=0;exitPerimeter=0;" edge="1" parent="1" source="79" target="77">
                    <mxGeometry width="50" height="50" relative="1" as="geometry">
                        <mxPoint x="340" y="1660" as="sourcePoint"/>
                        <mxPoint x="390" y="1610" as="targetPoint"/>
                    </mxGeometry>
                </mxCell>
                <mxCell id="85" value="" style="endArrow=none;html=1;strokeColor=#FF3333;fontSize=8;fontColor=#000000;entryX=0.5;entryY=1;entryDx=0;entryDy=0;exitX=0.5;exitY=0;exitDx=0;exitDy=0;" edge="1" parent="1" source="81" target="80">
                    <mxGeometry width="50" height="50" relative="1" as="geometry">
                        <mxPoint x="279.91999999999996" y="1561.6000000000001" as="sourcePoint"/>
                        <mxPoint x="280" y="1540" as="targetPoint"/>
                    </mxGeometry>
                </mxCell>
                <mxCell id="86" value="" style="endArrow=classic;html=1;strokeColor=#FF3333;fontSize=8;fontColor=#000000;exitX=0.5;exitY=1;exitDx=0;exitDy=0;" edge="1" parent="1" source="81" target="83">
                    <mxGeometry width="50" height="50" relative="1" as="geometry">
                        <mxPoint x="340" y="1730" as="sourcePoint"/>
                        <mxPoint x="390" y="1680" as="targetPoint"/>
                    </mxGeometry>
                </mxCell>
                <mxCell id="87" value="" style="endArrow=classic;html=1;strokeColor=#FF3333;fontSize=8;fontColor=#000000;exitX=0.485;exitY=1.002;exitDx=0;exitDy=0;exitPerimeter=0;" edge="1" parent="1" source="75">
                    <mxGeometry width="50" height="50" relative="1" as="geometry">
                        <mxPoint x="340" y="1930" as="sourcePoint"/>
                        <mxPoint x="130" y="1910" as="targetPoint"/>
                        <Array as="points">
                            <mxPoint x="273" y="1880"/>
                            <mxPoint x="130" y="1880"/>
                        </Array>
                    </mxGeometry>
                </mxCell>
                <mxCell id="88" value="INVOICE (To Donater - email)" style="rounded=0;whiteSpace=wrap;html=1;strokeColor=#FF0000;fontSize=8;fontColor=#000000;fillColor=#FFFFFF;" vertex="1" parent="1">
                    <mxGeometry x="40" y="1920" width="190" height="60" as="geometry"/>
                </mxCell>
                <mxCell id="89" value="" style="endArrow=classic;html=1;strokeColor=#FF3333;fontSize=8;fontColor=#000000;exitX=0;exitY=0.5;exitDx=0;exitDy=0;" edge="1" parent="1" source="55">
                    <mxGeometry width="50" height="50" relative="1" as="geometry">
                        <mxPoint x="290" y="700" as="sourcePoint"/>
                        <mxPoint x="100" y="2070" as="targetPoint"/>
                        <Array as="points">
                            <mxPoint x="20" y="765"/>
                            <mxPoint x="20" y="2070"/>
                        </Array>
                    </mxGeometry>
                </mxCell>
                <mxCell id="90" value="" style="rounded=0;whiteSpace=wrap;html=1;strokeColor=#FF0000;fontSize=8;fontColor=#000000;fillColor=#FFFFFF;" vertex="1" parent="1">
                    <mxGeometry x="110" y="2040" width="210" height="230" as="geometry"/>
                </mxCell>
                <mxCell id="92" value="Login" style="rounded=0;whiteSpace=wrap;html=1;strokeColor=#FF0000;fontSize=8;fontColor=#000000;fillColor=#FFFFFF;" vertex="1" parent="1">
                    <mxGeometry x="150" y="2060" width="120" height="30" as="geometry"/>
                </mxCell>
                <mxCell id="93" value="Form&lt;br&gt;&lt;br&gt;&lt;font style=&quot;font-size: 5px;&quot;&gt;( select authority to send enquiry )&lt;/font&gt;" style="rounded=0;whiteSpace=wrap;html=1;strokeColor=#FF0000;fontSize=8;fontColor=#000000;fillColor=#FFFFFF;" vertex="1" parent="1">
                    <mxGeometry x="150" y="2100" width="120" height="100" as="geometry"/>
                </mxCell>
                <mxCell id="94" value="Submit" style="rounded=0;whiteSpace=wrap;html=1;strokeColor=#FF0000;fontSize=8;fontColor=#000000;fillColor=#FFFFFF;" vertex="1" parent="1">
                    <mxGeometry x="150" y="2210" width="120" height="20" as="geometry"/>
                </mxCell>
                <mxCell id="98" value="Testimonials" style="rounded=0;whiteSpace=wrap;html=1;fontColor=#000000;fillColor=#FFFFFF;strokeColor=#CC0000;" vertex="1" parent="1">
                    <mxGeometry x="85" y="600" width="390" height="50" as="geometry"/>
                </mxCell>
                <mxCell id="100" value="" style="rounded=0;whiteSpace=wrap;html=1;strokeColor=#FF0000;fontSize=8;fontColor=#000000;fillColor=#FFFFFF;" vertex="1" parent="1">
                    <mxGeometry x="105" y="2500" width="210" height="330" as="geometry"/>
                </mxCell>
                <mxCell id="101" value="&lt;font style=&quot;font-size: 14px;&quot;&gt;Volunteer Joining&lt;/font&gt;" style="rounded=0;whiteSpace=wrap;html=1;strokeColor=#FF0000;fontSize=5;fontColor=#000000;fillColor=#FFFFFF;" vertex="1" parent="1">
                    <mxGeometry x="137.5" y="2520" width="145" height="40" as="geometry"/>
                </mxCell>
                <mxCell id="103" value="&lt;font style=&quot;font-size: 14px;&quot;&gt;Login&lt;/font&gt;" style="rounded=0;whiteSpace=wrap;html=1;strokeColor=#FF0000;fontSize=5;fontColor=#000000;fillColor=#FFFFFF;" vertex="1" parent="1">
                    <mxGeometry x="137.5" y="2570" width="145" height="40" as="geometry"/>
                </mxCell>
                <mxCell id="104" value="&lt;font style=&quot;&quot;&gt;&lt;span style=&quot;font-size: 14px;&quot;&gt;Form&lt;/span&gt;&lt;br&gt;&lt;br&gt;&lt;font style=&quot;font-size: 8px;&quot;&gt;(with category choosen)&lt;/font&gt;&lt;br&gt;&lt;/font&gt;" style="rounded=0;whiteSpace=wrap;html=1;strokeColor=#FF0000;fontSize=5;fontColor=#000000;fillColor=#FFFFFF;" vertex="1" parent="1">
                    <mxGeometry x="137.5" y="2620" width="145" height="140" as="geometry"/>
                </mxCell>
                <mxCell id="105" value="&lt;span style=&quot;font-size: 14px;&quot;&gt;Status&lt;/span&gt;" style="rounded=0;whiteSpace=wrap;html=1;strokeColor=#FF0000;fontSize=5;fontColor=#000000;fillColor=#FFFFFF;" vertex="1" parent="1">
                    <mxGeometry x="137.5" y="2770" width="145" height="40" as="geometry"/>
                </mxCell>
                <mxCell id="108" value="" style="rounded=0;whiteSpace=wrap;html=1;strokeColor=#FF0000;fontSize=8;fontColor=#000000;fillColor=#FFFFFF;" vertex="1" parent="1">
                    <mxGeometry x="405" y="2500" width="205" height="290" as="geometry"/>
                </mxCell>
                <mxCell id="110" value="Text" style="text;html=1;strokeColor=none;fillColor=none;align=center;verticalAlign=middle;whiteSpace=wrap;rounded=0;fontSize=8;fontColor=#000000;" vertex="1" parent="1">
                    <mxGeometry x="290" y="2660" width="60" height="30" as="geometry"/>
                </mxCell>
                <mxCell id="112" value="&lt;font style=&quot;font-size: 14px;&quot;&gt;Login&lt;/font&gt;" style="rounded=0;whiteSpace=wrap;html=1;strokeColor=#FF0000;fontSize=8;fontColor=#000000;fillColor=#FFFFFF;" vertex="1" parent="1">
                    <mxGeometry x="417.88" y="2540" width="180" height="30" as="geometry"/>
                </mxCell>
                <mxCell id="114" value="&lt;font style=&quot;font-size: 14px;&quot;&gt;Forget Password&lt;/font&gt;" style="rounded=0;whiteSpace=wrap;html=1;strokeColor=#FF0000;fontSize=8;fontColor=#000000;fillColor=#FFFFFF;" vertex="1" parent="1">
                    <mxGeometry x="417.88" y="2580" width="182.12" height="30" as="geometry"/>
                </mxCell>
                <mxCell id="115" value="&lt;font style=&quot;font-size: 14px;&quot;&gt;Mail OTP / Mobile OTP&lt;/font&gt;" style="rounded=0;whiteSpace=wrap;html=1;strokeColor=#FF0000;fontSize=8;fontColor=#000000;fillColor=#FFFFFF;" vertex="1" parent="1">
                    <mxGeometry x="417.88" y="2620" width="178.75" height="30" as="geometry"/>
                </mxCell>
            </root>
        </mxGraphModel>
    </diagram>
</mxfile>